<?xml version="1.0" standalone="no"?>
<!DOCTYPE svg PUBLIC "-//W3C//DTD SVG 20010904//EN"
 "http://www.w3.org/TR/2001/REC-SVG-20010904/DTD/svg10.dtd">
<svg version="1.0" xmlns="http://www.w3.org/2000/svg"
 width="1200.000000pt" height="1200.000000pt" viewBox="0 0 1200.000000 1200.000000"
 preserveAspectRatio="xMidYMid meet">

<g transform="translate(0.000000,1200.000000) scale(0.100000,-0.100000)"
fill="#000000" stroke="none">
<path d="M7217 9965 c-80 -20 -42 0 -1760 -928 l-1528 -826 -492 -3 c-552 -4
-542 -3 -697 -80 -66 -33 -103 -60 -165 -123 -124 -125 -185 -249 -206 -418
-6 -52 -9 -656 -7 -1677 3 -1499 5 -1599 22 -1655 60 -201 193 -363 371 -450
140 -69 137 -69 683 -73 l492 -3 1528 -826 c840 -454 1565 -844 1612 -868 47
-23 115 -50 151 -59 91 -22 246 -21 341 3 241 62 441 255 514 496 18 57 19
204 22 3460 3 3815 10 3480 -73 3651 -80 166 -232 299 -410 360 -68 23 -99 28
-210 30 -90 3 -148 -1 -188 -11z m91 -5569 l-3 -1574 -1568 848 c-1366 739
-1577 850 -1631 859 -39 7 -230 11 -499 11 l-437 0 0 1429 0 1430 473 4 c259
2 484 7 499 12 14 4 732 389 1595 855 l1568 848 3 -1574 c1 -866 1 -2282 0
-3148z"/>
<path d="M9918 8618 c-127 -16 -243 -103 -301 -225 -29 -62 -32 -76 -32 -168
0 -93 2 -105 32 -165 22 -43 68 -104 139 -180 321 -349 534 -733 657 -1190 70
-259 102 -574 86 -865 -35 -670 -295 -1277 -760 -1771 -64 -68 -101 -118 -123
-163 -28 -60 -31 -75 -31 -166 0 -93 2 -105 32 -166 64 -130 193 -229 317
-244 63 -8 154 8 215 37 95 46 343 316 514 561 359 511 584 1131 637 1752 13
154 13 456 0 610 -69 808 -422 1592 -976 2165 -151 156 -247 198 -406 178z"/>
<path d="M8843 7756 c-106 -34 -196 -113 -246 -216 -30 -60 -32 -72 -32 -165
0 -91 3 -106 31 -166 19 -39 58 -94 96 -135 216 -233 332 -449 405 -754 37
-155 44 -436 15 -606 -55 -318 -188 -587 -411 -827 -46 -50 -85 -103 -104
-145 -29 -61 -32 -76 -32 -162 1 -75 6 -107 24 -153 32 -81 115 -168 199 -209
63 -31 73 -33 177 -33 149 0 195 21 320 148 273 277 485 653 580 1028 67 261
91 578 66 835 -53 528 -292 1049 -651 1416 -121 123 -173 150 -305 155 -58 2
-105 -2 -132 -11z"/>
</g>
</svg>
